<mxfile host="app.diagrams.net" modified="2023-10-12T12:17:22.272Z" agent="Mozilla/5.0 (Windows NT 10.0; Win64; x64; rv:109.0) Gecko/20100101 Firefox/118.0" version="22.0.4" etag="lhS0CK-_wN2ZCXqcAneU" type="github">
  <diagram name="Page-1" id="DMcVZTLT_pOn4iTBf1LE">
    <mxGraphModel>
      <root>
        <mxCell id="0" />
        <mxCell id="1" parent="0" />
      </root>
    </mxGraphModel>
  </diagram>
</mxfile>
